<?xml version="1.0" standalone="no"?>
<!DOCTYPE svg PUBLIC "-//W3C//DTD SVG 20010904//EN"
 "http://www.w3.org/TR/2001/REC-SVG-20010904/DTD/svg10.dtd">
<svg version="1.0" xmlns="http://www.w3.org/2000/svg"
 width="260.000000pt" height="260.000000pt" viewBox="0 0 260.000000 260.000000"
 preserveAspectRatio="xMidYMid meet">
<metadata>
Created by potrace 1.14, written by Peter Selinger 2001-2017
</metadata>
<g transform="translate(0.000000,260.000000) scale(0.100000,-0.100000)"
fill="#000000" stroke="none">
<path d="M0 1300 l0 -1300 1300 0 1300 0 0 1300 0 1300 -1300 0 -1300 0 0
-1300z m1106 345 l172 -550 40 130 c23 72 95 306 162 520 67 215 126 405 131
423 l11 32 229 0 229 0 4 -22 c3 -13 55 -417 116 -898 61 -481 113 -887 116
-902 l6 -28 -196 0 c-180 0 -196 1 -196 18 1 32 -154 1272 -158 1268 -2 -3
-93 -292 -202 -643 l-198 -638 -93 -3 -94 -2 -204 645 c-113 354 -206 643
-208 642 -2 -3 -153 -1268 -153 -1284 0 -2 -88 -3 -196 -3 l-196 0 6 28 c3 15
53 421 111 902 58 481 108 885 111 898 l4 22 238 -2 237 -3 171 -550z"/>
</g>
</svg>
